<?xml version="1.0" standalone="no"?>
<!DOCTYPE svg PUBLIC "-//W3C//DTD SVG 20010904//EN"
 "http://www.w3.org/TR/2001/REC-SVG-20010904/DTD/svg10.dtd">
<svg version="1.0" xmlns="http://www.w3.org/2000/svg"
 width="512.000000pt" height="512.000000pt" viewBox="0 0 512.000000 512.000000"
 preserveAspectRatio="xMidYMid meet">

<g transform="translate(0.000000,512.000000) scale(0.100000,-0.100000)"
fill="#000000" stroke="none">
<path d="M2535 4200 c-3 -5 -14 -10 -24 -10 -10 0 -24 -6 -31 -14 -6 -8 -17
-13 -24 -10 -17 7 -67 -52 -60 -71 3 -8 -3 -27 -14 -42 -28 -41 -34 -78 -27
-159 5 -53 11 -71 20 -68 8 3 12 -2 12 -13 -2 -16 8 -18 77 -21 63 -2 82 1 97
14 20 18 27 84 9 84 -5 0 -10 14 -10 30 0 17 5 30 10 30 6 0 10 8 10 18 0 38
32 52 114 52 64 0 78 -3 83 -17 12 -34 25 -45 35 -31 4 7 5 -2 2 -22 -4 -19
-13 -42 -20 -51 -8 -8 -14 -20 -14 -25 0 -12 -62 -74 -74 -74 -4 0 -31 -21
-61 -46 -42 -37 -55 -55 -60 -85 -4 -22 -11 -41 -16 -45 -14 -8 -10 -127 5
-146 8 -11 26 -18 44 -18 26 0 33 -5 37 -27 10 -47 20 -58 56 -58 l34 0 -1 60
c-1 52 1 61 23 78 21 17 24 25 18 53 -5 27 -3 34 10 34 8 0 15 7 15 15 0 8 14
24 31 34 17 11 36 29 43 42 6 12 25 30 41 39 34 19 57 56 51 83 -2 10 2 17 10
17 10 0 14 12 14 39 0 22 5 43 10 46 13 8 13 72 0 80 -6 3 -8 16 -4 29 3 14
-1 27 -10 35 -9 8 -16 19 -16 26 0 14 -45 65 -58 65 -5 0 -17 9 -27 20 -10 11
-28 20 -41 20 -13 0 -26 5 -29 10 -4 6 -63 10 -145 10 -82 0 -141 -4 -145 -10z"/>
<path d="M1027 4023 c-4 -3 -7 -33 -7 -66 0 -49 -4 -64 -22 -81 -20 -18 -23
-31 -23 -91 1 -39 3 -75 7 -80 3 -6 6 -68 7 -140 1 -71 6 -134 11 -139 5 -5 6
-21 3 -36 -3 -15 0 -31 6 -34 7 -5 11 -46 11 -112 0 -86 -3 -104 -15 -104 -8
0 -15 -4 -15 -10 0 -14 -49 -12 -63 3 -7 6 -19 26 -27 42 -8 17 -21 34 -27 38
-7 4 -13 15 -13 24 0 9 -10 27 -21 39 -12 13 -27 32 -33 42 -6 10 -26 40 -43
67 -18 27 -33 59 -33 71 0 13 -4 25 -9 28 -5 4 -12 24 -16 45 -3 22 -15 47
-26 57 -17 15 -19 31 -19 131 0 133 -8 158 -51 149 -24 -4 -31 -1 -46 24 -14
24 -24 30 -50 30 -18 0 -33 -4 -33 -9 0 -5 -9 -11 -21 -14 -19 -5 -20 -11 -17
-90 2 -47 9 -91 15 -99 6 -7 13 -64 16 -127 3 -63 11 -119 16 -124 6 -6 11
-28 11 -48 0 -20 6 -42 14 -48 8 -7 27 -38 42 -69 16 -31 29 -58 30 -60 1 -2
10 -5 21 -6 10 -2 20 -11 22 -22 4 -26 21 -44 49 -55 41 -16 20 -34 -44 -37
-32 -2 -62 -9 -66 -15 -4 -7 -42 -13 -99 -16 -127 -4 -128 -2 -129 176 0 72
-4 134 -9 137 -4 3 -11 20 -15 37 -3 17 -15 44 -27 60 -17 25 -21 47 -24 156
-8 276 -24 344 -73 300 -24 -22 -40 -22 -64 0 -18 16 -22 16 -46 2 -26 -14
-27 -18 -30 -118 -2 -68 1 -108 9 -117 7 -8 9 -17 6 -21 -4 -3 -2 -13 3 -22 4
-9 11 -140 15 -291 4 -151 11 -279 16 -285 5 -5 9 -31 9 -58 0 -57 25 -118 52
-125 10 -2 18 -7 18 -11 0 -4 19 -12 43 -19 32 -10 55 -10 87 -3 25 6 82 11
127 11 45 0 85 5 88 10 9 15 150 13 163 -3 8 -10 4 -16 -19 -26 -16 -7 -29
-18 -29 -26 0 -18 -47 -26 -178 -30 -62 -3 -117 -7 -122 -10 -5 -3 -11 -1 -15
5 -10 16 -111 12 -125 -5 -15 -18 -53 -20 -79 -4 -41 26 -109 -24 -77 -56 8
-8 23 -15 34 -15 11 0 31 -9 46 -21 17 -13 43 -21 76 -22 33 -1 50 -6 50 -15
0 -7 7 -15 15 -18 8 -4 15 -12 15 -20 0 -20 188 -20 216 0 13 10 33 13 61 9
32 -4 50 -1 78 16 20 11 54 24 76 27 22 4 42 11 45 15 3 5 13 9 23 9 18 0 93
80 116 124 8 14 15 35 17 47 2 12 12 27 23 33 11 6 23 15 27 20 4 6 13 4 22
-3 13 -11 19 -11 31 -1 10 9 15 9 15 1 0 -6 18 -11 45 -11 34 0 45 4 45 15 0
11 8 15 27 13 19 -2 28 2 28 12 0 9 8 14 19 12 9 -2 28 8 40 21 23 25 23 27
18 239 -2 117 -8 217 -13 222 -5 6 -9 71 -9 145 0 101 -4 143 -15 165 -10 18
-15 57 -15 112 l0 83 -37 3 c-29 2 -39 8 -41 23 -3 11 -9 26 -14 33 -11 13
-70 17 -81 5z"/>
<path d="M1875 3580 c-3 -5 -14 -10 -24 -10 -9 0 -30 -13 -46 -30 -29 -30 -65
-40 -65 -19 0 8 -4 8 -13 1 -7 -6 -63 -13 -124 -15 -102 -4 -113 -6 -147 -32
-20 -15 -39 -38 -42 -51 -3 -13 -12 -28 -20 -35 -8 -6 -11 -16 -8 -21 3 -5 -2
-18 -12 -29 -17 -19 -17 -21 0 -53 9 -18 16 -37 15 -42 -4 -21 2 -34 15 -34
10 0 16 -13 18 -37 2 -28 9 -41 27 -49 13 -7 28 -22 35 -35 6 -13 21 -29 34
-35 12 -6 30 -18 40 -27 10 -10 25 -17 33 -17 8 0 19 -4 24 -9 33 -32 249 -53
286 -28 14 10 33 13 55 10 20 -3 40 -1 48 7 9 6 20 9 25 6 5 -4 12 -2 16 4 3
5 16 10 29 10 12 0 35 13 50 29 15 16 41 31 57 35 16 3 40 18 53 33 70 79 87
104 92 134 3 19 11 44 17 57 8 17 8 25 -1 34 -7 7 -12 24 -12 39 0 35 -23 90
-47 110 -10 9 -35 19 -55 23 -20 4 -38 10 -40 14 -2 4 -31 22 -64 40 -57 29
-70 32 -152 32 -50 0 -94 -4 -97 -10z m-37 -152 c-3 -18 -3 -39 -1 -45 6 -16
52 -16 79 0 88 51 78 49 131 22 46 -25 81 -69 62 -81 -5 -3 -9 -16 -9 -28 0
-13 -7 -29 -15 -36 -8 -7 -15 -18 -15 -25 0 -7 -21 -26 -47 -41 -27 -15 -50
-31 -53 -35 -3 -4 -22 -10 -43 -14 -20 -4 -40 -11 -43 -16 -7 -12 -121 -11
-129 1 -3 6 -17 10 -30 10 -13 0 -36 13 -52 28 -15 16 -36 31 -45 35 -27 10
-59 68 -53 96 9 34 46 81 66 81 10 0 27 12 39 28 19 23 29 27 76 28 30 0 60 6
66 12 18 18 21 15 16 -20z"/>
<path d="M2680 3260 c0 -5 -9 -10 -19 -10 -11 0 -26 -7 -35 -15 -8 -8 -18 -15
-23 -15 -5 0 -26 -17 -47 -39 -37 -38 -38 -40 -33 -97 3 -33 8 -72 12 -89 11
-43 53 -85 86 -85 15 0 29 -4 31 -9 3 -10 41 -15 109 -13 38 2 48 6 57 27 7
15 20 25 32 25 11 0 35 17 55 38 38 41 48 99 20 122 -9 8 -15 30 -15 60 0 49
-20 80 -52 80 -9 0 -21 7 -28 15 -14 17 -150 22 -150 5z"/>
<path d="M4590 2800 c0 -5 -14 -10 -30 -10 -17 0 -47 -9 -67 -20 -21 -11 -45
-20 -55 -20 -22 0 -58 -47 -58 -76 0 -24 -2 -31 -34 -91 -9 -17 -16 -54 -16
-83 0 -44 3 -53 21 -57 16 -4 19 -11 15 -29 -5 -19 -2 -24 14 -24 22 0 28 -16
8 -22 -6 -2 31 -5 83 -6 l94 -1 14 31 c11 24 11 35 2 49 -15 25 -14 96 2 115
36 43 38 44 115 43 110 -1 126 -8 130 -48 2 -19 1 -45 -3 -58 -7 -28 -101
-133 -119 -133 -23 0 -94 -84 -112 -132 -3 -9 -12 -19 -20 -22 -10 -4 -14 -26
-14 -86 0 -67 3 -80 16 -80 9 0 18 -9 21 -20 4 -15 14 -20 39 -20 31 0 34 -3
34 -30 0 -16 5 -30 10 -30 6 0 10 -7 10 -15 0 -22 43 -19 64 4 15 17 17 30 11
80 -6 50 -4 61 7 61 21 0 45 30 52 66 4 17 18 42 32 54 13 13 24 29 24 36 0
12 28 29 44 25 15 -3 56 41 73 79 9 19 25 45 36 57 18 20 21 38 21 125 1 101
0 104 -33 153 -45 65 -61 80 -95 89 -16 4 -35 14 -43 21 -8 8 -23 15 -33 15
-10 0 -22 5 -25 10 -4 6 -55 10 -121 10 -69 0 -114 -4 -114 -10z"/>
<path d="M2933 2585 c-3 -9 -3 -31 0 -50 4 -25 1 -38 -15 -52 -20 -18 -20 -24
-13 -328 5 -209 11 -315 18 -324 9 -11 9 -15 0 -18 -17 -6 -17 -55 -1 -71 10
-10 10 -17 0 -32 -6 -11 -12 -27 -12 -35 0 -11 -11 -15 -38 -15 -40 0 -62 14
-62 39 0 8 -12 30 -27 50 -31 40 -47 66 -62 98 -5 11 -15 24 -21 28 -6 4 -15
17 -21 28 -9 23 -30 58 -39 67 -15 15 -30 53 -30 74 0 14 -4 27 -9 30 -5 3
-12 18 -16 33 -3 15 -11 30 -16 33 -4 3 -10 39 -13 80 -2 41 -5 77 -6 80 -1 3
-2 27 -1 54 1 56 -18 86 -55 86 -14 0 -31 12 -44 30 -17 24 -29 30 -59 30 -20
0 -42 -5 -49 -12 -15 -15 -17 -188 -2 -188 14 0 13 -33 -2 -48 -9 -9 -9 -17 0
-34 6 -13 13 -67 15 -121 2 -54 9 -103 16 -110 6 -6 11 -19 11 -29 0 -10 9
-23 20 -30 12 -8 20 -24 20 -40 0 -40 10 -57 41 -74 21 -10 29 -22 29 -40 0
-17 7 -28 19 -31 11 -3 24 -18 30 -34 5 -16 17 -29 25 -29 20 0 21 -17 3 -35
-10 -9 -57 -14 -170 -16 l-156 -3 -19 24 c-18 22 -20 45 -23 191 l-4 165 -31
39 -31 40 -7 210 c-4 115 -12 215 -17 221 -10 12 -131 17 -181 8 -28 -6 -28
-6 -28 -85 0 -44 4 -88 9 -97 13 -24 21 -268 9 -280 -5 -5 -3 -14 7 -22 12
-10 15 -36 15 -126 0 -72 4 -121 12 -134 10 -15 9 -24 -2 -45 -10 -19 -11 -28
-2 -37 7 -7 12 -37 12 -69 0 -101 12 -179 27 -179 7 0 24 -7 37 -16 27 -17
113 -19 389 -8 102 4 167 3 167 -3 0 -19 -61 -53 -122 -70 -76 -20 -258 -30
-258 -14 0 7 -23 11 -57 11 -42 0 -62 -5 -77 -19 -26 -24 -68 -30 -89 -13 -9
7 -31 12 -49 10 -25 -2 -35 -9 -42 -30 -8 -23 -6 -30 15 -48 13 -11 36 -23 52
-26 15 -4 30 -11 33 -15 3 -5 27 -9 53 -9 48 0 70 -14 84 -51 5 -14 27 -16
168 -15 120 1 163 4 167 14 2 6 12 12 22 12 10 0 22 5 25 10 4 6 12 7 22 1 12
-6 30 1 65 25 26 19 56 34 66 34 22 0 92 57 92 75 0 7 7 15 15 19 8 3 15 12
15 21 0 8 7 15 15 15 10 0 15 10 15 33 0 52 12 57 129 57 101 -1 109 1 168 32
46 24 63 38 63 54 0 11 2 23 5 26 9 9 11 258 3 258 -5 0 -8 64 -8 142 0 111
-3 145 -15 158 -12 13 -15 53 -16 207 l-1 191 -35 9 c-35 8 -46 19 -57 56 -7
23 -104 25 -113 2z"/>
<path d="M3735 2120 c-3 -5 -25 -10 -48 -10 -28 0 -65 -12 -111 -35 -37 -19
-73 -35 -79 -35 -17 0 -137 -127 -137 -144 0 -9 -3 -16 -7 -16 -13 0 -33 -51
-33 -81 0 -15 -4 -31 -10 -34 -17 -11 -11 -79 10 -105 11 -14 20 -33 20 -43 0
-11 12 -23 28 -29 16 -6 36 -24 45 -40 9 -16 25 -28 36 -28 11 0 22 -4 26 -9
3 -5 18 -8 33 -6 15 1 32 -1 37 -5 14 -11 167 -17 183 -7 7 5 18 5 25 0 15
-12 202 1 219 14 7 6 34 14 61 17 26 4 47 11 47 16 0 5 29 23 64 40 72 36 115
82 96 105 -12 15 -6 35 11 35 11 0 49 37 49 48 0 4 9 13 20 20 25 15 26 54 2
75 -36 33 -72 17 -160 -70 -41 -41 -59 -53 -83 -53 -17 0 -50 -10 -73 -21 -22
-12 -49 -25 -58 -30 -10 -5 -26 -9 -36 -9 -10 0 -24 -6 -30 -12 -9 -9 -57 -13
-164 -13 -112 0 -152 3 -155 13 -3 6 -10 12 -17 12 -7 0 -20 8 -29 18 -13 14
-14 21 -5 30 13 13 41 16 52 5 24 -25 184 -46 226 -30 8 4 26 6 40 6 42 -1
113 12 147 27 17 8 35 14 40 14 17 0 63 51 63 70 0 22 15 27 25 9 13 -20 35
43 35 101 0 61 -22 120 -46 120 -7 0 -36 14 -62 30 -31 19 -63 30 -85 30 -20
0 -39 5 -42 10 -3 6 -42 10 -85 10 -43 0 -82 -4 -85 -10z m115 -190 c27 -17
-5 -32 -72 -35 -90 -3 -140 30 -55 38 82 7 112 7 127 -3z"/>
<path d="M4710 1800 c-23 -12 -74 -34 -80 -33 -3 1 -24 -15 -48 -35 -27 -24
-46 -50 -52 -72 -5 -19 -12 -44 -15 -56 -5 -14 2 -30 20 -52 15 -18 22 -32 16
-32 -20 0 -12 -17 25 -54 20 -20 44 -36 54 -36 10 0 22 -9 25 -20 4 -13 15
-20 31 -20 14 0 34 -5 45 -11 23 -12 99 16 99 38 0 7 8 13 19 13 10 0 24 7 31
15 7 8 21 15 31 15 12 0 19 7 19 18 0 10 11 29 25 42 25 23 35 70 15 70 -5 0
-10 17 -10 38 0 21 -7 47 -15 58 -8 10 -15 28 -15 40 0 26 -40 64 -68 64 -11
0 -24 5 -27 10 -7 12 -104 12 -125 0z"/>
</g>
</svg>
