<?xml version="1.0" standalone="no"?>
<!DOCTYPE svg PUBLIC "-//W3C//DTD SVG 20010904//EN"
 "http://www.w3.org/TR/2001/REC-SVG-20010904/DTD/svg10.dtd">
<svg version="1.0" xmlns="http://www.w3.org/2000/svg"
 width="512.000000pt" height="512.000000pt" viewBox="0 0 512.000000 512.000000"
 preserveAspectRatio="xMidYMid meet">

<g transform="translate(0.000000,512.000000) scale(0.100000,-0.100000)"
fill="#000000" stroke="none">
<path d="M2660 3133 c-35 -2 -69 -8 -75 -12 -5 -5 -27 -11 -48 -15 -61 -11
-137 -94 -163 -179 -3 -12 -15 -42 -26 -67 -60 -137 -79 -160 -130 -160 l-28
0 0 215 0 215 -165 0 -165 0 0 -570 0 -570 165 0 165 0 0 225 0 225 34 0 c24
0 42 -8 63 -30 28 -29 93 -147 93 -169 0 -6 4 -11 8 -11 5 0 15 -18 22 -40 7
-22 16 -40 21 -40 4 0 10 -12 14 -27 3 -15 18 -51 31 -80 l25 -53 189 0 188 0
-104 207 c-58 114 -108 210 -112 213 -4 3 -14 18 -22 33 -18 36 -95 107 -115
107 -8 0 -15 5 -15 10 0 6 -7 10 -15 10 -8 0 -15 7 -15 15 0 8 7 15 15 15 29
0 84 62 118 134 37 76 81 126 119 138 13 3 42 6 66 7 l42 1 0 130 0 130 -57
-2 c-32 -1 -87 -3 -123 -5z"/>
<path d="M157 3124 c-4 -4 -7 -261 -7 -571 l0 -563 313 1 c336 0 424 7 540 41
20 6 37 15 37 20 0 4 6 8 14 8 25 0 104 95 111 134 4 20 11 36 16 36 12 0 12
167 0 174 -4 3 -11 19 -14 35 -11 54 -134 151 -191 151 -26 0 -14 23 20 39 16
8 31 17 34 20 3 4 17 14 33 24 15 10 27 24 27 32 0 8 4 15 9 15 27 0 42 157
21 230 -10 35 -85 120 -106 120 -7 0 -14 4 -16 10 -1 5 -34 18 -73 27 -58 14
-131 18 -416 20 -190 2 -348 0 -352 -3z m618 -245 c31 -28 35 -37 35 -80 0
-38 -5 -54 -26 -76 -26 -28 -28 -28 -160 -31 l-134 -4 0 111 0 111 125 0 124
0 36 -31z m50 -434 c24 -25 29 -38 29 -80 0 -42 -5 -55 -29 -80 l-30 -30 -152
-3 -153 -4 0 117 0 117 153 -4 152 -3 30 -30z"/>
<path d="M1330 2560 l0 -570 170 0 170 0 0 570 0 570 -170 0 -170 0 0 -570z"/>
<path d="M2870 3000 l0 -130 185 0 185 0 0 -440 0 -440 160 0 160 0 0 440 0
440 180 0 180 0 0 130 0 130 -525 0 -525 0 0 -130z"/>
<path d="M4020 2560 l0 -570 475 0 475 0 0 130 0 130 -305 0 -305 0 0 110 0
110 275 0 275 0 0 115 0 115 -275 0 -275 0 0 85 0 85 295 0 295 0 0 130 0 130
-465 0 -465 0 0 -570z"/>
</g>
</svg>
